<svg width="20" height="21" viewBox="0 0 20 21" fill="none" xmlns="http://www.w3.org/2000/svg">
<path d="M9.96191 6C9.0719 6 8.20187 6.26392 7.46185 6.75839C6.72183 7.25285 6.14505 7.95566 5.80446 8.77792C5.46386 9.60019 5.37475 10.505 5.54838 11.3779C5.72201 12.2508 6.1506 13.0526 6.77993 13.682C7.40927 14.3113 8.21109 14.7399 9.08401 14.9135C9.95692 15.0872 10.8617 14.9981 11.684 14.6575C12.5063 14.3169 13.2091 13.7401 13.7035 13.0001C14.198 12.26 14.4619 11.39 14.4619 10.5C14.4607 9.30691 13.9862 8.16303 13.1425 7.31939C12.2989 6.47575 11.155 6.00124 9.96191 6ZM9.96191 13.5C9.36857 13.5 8.78855 13.3241 8.2952 12.9944C7.80186 12.6648 7.41734 12.1962 7.19028 11.6481C6.96321 11.0999 6.9038 10.4967 7.01956 9.91473C7.13531 9.33279 7.42104 8.79824 7.84059 8.37868C8.26015 7.95912 8.7947 7.6734 9.37664 7.55764C9.95859 7.44189 10.5618 7.5013 11.11 7.72836C11.6581 7.95542 12.1267 8.33994 12.4563 8.83329C12.786 9.32664 12.9619 9.90666 12.9619 10.5C12.9619 11.2956 12.6458 12.0587 12.0832 12.6213C11.5206 13.1839 10.7576 13.5 9.96191 13.5ZM14.4619 0.75H5.46191C4.06998 0.751489 2.73549 1.30509 1.75125 2.28933C0.767005 3.27358 0.213403 4.60807 0.211914 6V15C0.213403 16.3919 0.767005 17.7264 1.75125 18.7107C2.73549 19.6949 4.06998 20.2485 5.46191 20.25H14.4619C15.8538 20.2485 17.1883 19.6949 18.1726 18.7107C19.1568 17.7264 19.7104 16.3919 19.7119 15V6C19.7104 4.60807 19.1568 3.27358 18.1726 2.28933C17.1883 1.30509 15.8538 0.751489 14.4619 0.75ZM18.2119 15C18.2119 15.9946 17.8168 16.9484 17.1136 17.6516C16.4103 18.3549 15.4565 18.75 14.4619 18.75H5.46191C4.46735 18.75 3.51353 18.3549 2.81026 17.6516C2.107 16.9484 1.71191 15.9946 1.71191 15V6C1.71191 5.00544 2.107 4.05161 2.81026 3.34835C3.51353 2.64509 4.46735 2.25 5.46191 2.25H14.4619C15.4565 2.25 16.4103 2.64509 17.1136 3.34835C17.8168 4.05161 18.2119 5.00544 18.2119 6V15ZM15.9619 5.625C15.9619 5.8475 15.8959 6.06501 15.7723 6.25002C15.6487 6.43502 15.473 6.57922 15.2674 6.66436C15.0619 6.74951 14.8357 6.77179 14.6174 6.72838C14.3992 6.68498 14.1988 6.57783 14.0414 6.4205C13.8841 6.26316 13.7769 6.06271 13.7335 5.84448C13.6901 5.62625 13.7124 5.40005 13.7976 5.19448C13.8827 4.98891 14.0269 4.81321 14.2119 4.6896C14.3969 4.56598 14.6144 4.5 14.8369 4.5C15.1353 4.5 15.4214 4.61853 15.6324 4.8295C15.8434 5.04048 15.9619 5.32663 15.9619 5.625Z" fill="#74815A"/>
</svg>
