<svg width="19" height="19" viewBox="0 0 19 19" fill="none" xmlns="http://www.w3.org/2000/svg">
<path d="M18.9619 7.25C18.9619 7.44891 18.8829 7.63968 18.7422 7.78033C18.6016 7.92098 18.4108 8 18.2119 8C18.013 8 17.8222 7.92098 17.6816 7.78033C17.5409 7.63968 17.4619 7.44891 17.4619 7.25V3.06125L11.2435 9.28063C11.1027 9.42136 10.9119 9.50042 10.7129 9.50042C10.5138 9.50042 10.323 9.42136 10.1822 9.28063C10.0415 9.13989 9.96243 8.94902 9.96243 8.75C9.96243 8.55098 10.0415 8.36011 10.1822 8.21937L16.4007 2H12.2119C12.013 2 11.8222 1.92098 11.6816 1.78033C11.5409 1.63968 11.4619 1.44891 11.4619 1.25C11.4619 1.05109 11.5409 0.860322 11.6816 0.71967C11.8222 0.579018 12.013 0.5 12.2119 0.5H18.2119C18.4108 0.5 18.6016 0.579018 18.7422 0.71967C18.8829 0.860322 18.9619 1.05109 18.9619 1.25V7.25ZM15.2119 9.5C15.013 9.5 14.8222 9.57902 14.6816 9.71967C14.5409 9.86032 14.4619 10.0511 14.4619 10.25V17H2.46191V5H9.21191C9.41083 5 9.60159 4.92098 9.74224 4.78033C9.8829 4.63968 9.96191 4.44891 9.96191 4.25C9.96191 4.05109 9.8829 3.86032 9.74224 3.71967C9.60159 3.57902 9.41083 3.5 9.21191 3.5H2.46191C2.06409 3.5 1.68256 3.65804 1.40125 3.93934C1.11995 4.22064 0.961914 4.60218 0.961914 5V17C0.961914 17.3978 1.11995 17.7794 1.40125 18.0607C1.68256 18.342 2.06409 18.5 2.46191 18.5H14.4619C14.8597 18.5 15.2413 18.342 15.5226 18.0607C15.8039 17.7794 15.9619 17.3978 15.9619 17V10.25C15.9619 10.0511 15.8829 9.86032 15.7422 9.71967C15.6016 9.57902 15.4108 9.5 15.2119 9.5Z" fill="#74815A"/>
</svg>
