<svg width="22" height="20" viewBox="0 0 22 20" fill="none" xmlns="http://www.w3.org/2000/svg">
<path d="M21.169 0.95514C21.0528 0.854798 20.9115 0.788064 20.7601 0.762127C20.6088 0.736191 20.4533 0.752035 20.3103 0.807953L1.31092 8.24327C1.04165 8.34797 0.813688 8.53731 0.661345 8.78279C0.509002 9.02826 0.440525 9.31658 0.466223 9.60434C0.491922 9.8921 0.610405 10.1637 0.803835 10.3783C0.997264 10.5929 1.25517 10.7389 1.53873 10.7942L6.46154 11.7608V17.2498C6.46057 17.5488 6.54942 17.8412 6.71658 18.0891C6.88374 18.337 7.12149 18.529 7.39904 18.6401C7.67616 18.7533 7.98091 18.7805 8.27367 18.7181C8.56644 18.6557 8.83366 18.5067 9.0406 18.2905L11.4144 15.8286L15.1803 19.1248C15.452 19.3658 15.8024 19.4992 16.1656 19.4998C16.3248 19.4997 16.4829 19.4747 16.6344 19.4258C16.8818 19.3472 17.1044 19.2053 17.2799 19.014C17.4554 18.8227 17.5777 18.5887 17.6347 18.3355L21.44 1.78108C21.474 1.63178 21.4668 1.47603 21.4191 1.33053C21.3713 1.18503 21.2849 1.05527 21.169 0.95514ZM15.4372 4.33014L7.0381 10.3451L2.3881 9.43295L15.4372 4.33014ZM7.96154 17.2498V12.7986L10.2856 14.8367L7.96154 17.2498ZM16.1675 17.9998L8.41623 11.203L19.5725 3.20702L16.1675 17.9998Z" fill="#74815A"/>
</svg>
