<svg width="20" height="20" viewBox="0 0 20 20" fill="none" xmlns="http://www.w3.org/2000/svg">
<path d="M18.8091 13.3554L14.3925 11.3764L14.3804 11.3707C14.1511 11.2727 13.901 11.2333 13.6526 11.2562C13.4043 11.2792 13.1656 11.3636 12.9582 11.502C12.9337 11.5181 12.9103 11.5357 12.8879 11.5545L10.606 13.4998C9.16036 12.7976 7.66786 11.3164 6.96567 9.8895L8.9138 7.57293C8.93255 7.5495 8.95036 7.52606 8.96724 7.50075C9.10264 7.29384 9.18479 7.05667 9.20638 6.81035C9.22797 6.56402 9.18833 6.31618 9.09099 6.08887V6.07762L7.1063 1.65356C6.97762 1.35662 6.75635 1.10926 6.47554 0.948409C6.19472 0.787556 5.86941 0.721836 5.54817 0.76106C4.27783 0.928223 3.11178 1.55209 2.2678 2.51615C1.42382 3.48021 0.959626 4.71852 0.961923 5.99981C0.961923 13.4436 7.01817 19.4998 14.4619 19.4998C15.7432 19.5021 16.9815 19.0379 17.9456 18.1939C18.9096 17.35 19.5335 16.1839 19.7007 14.9136C19.74 14.5924 19.6744 14.2672 19.5137 13.9864C19.353 13.7056 19.1059 13.4843 18.8091 13.3554ZM14.4619 17.9998C11.2804 17.9963 8.23016 16.7309 5.98048 14.4813C3.73079 12.2316 2.4654 9.18134 2.46192 5.99981C2.4584 5.08433 2.78822 4.19887 3.3898 3.50879C3.99138 2.8187 4.82358 2.37118 5.73099 2.24981C5.73062 2.25355 5.73062 2.25732 5.73099 2.26106L7.69974 6.66731L5.76192 8.98668C5.74225 9.00932 5.72439 9.03345 5.70848 9.05887C5.56741 9.27536 5.48464 9.52462 5.46822 9.78249C5.45179 10.0404 5.50226 10.2981 5.61473 10.5307C6.46411 12.2679 8.21442 14.0051 9.97036 14.8536C10.2047 14.965 10.4639 15.0137 10.7227 14.995C10.9815 14.9762 11.2311 14.8907 11.4469 14.7467C11.471 14.7305 11.4942 14.7129 11.5163 14.6942L13.7954 12.7498L18.2016 14.7232C18.2016 14.7232 18.2091 14.7232 18.2119 14.7232C18.092 15.6319 17.6452 16.4658 16.955 17.0689C16.2648 17.6719 15.3785 18.0029 14.4619 17.9998Z" fill="#EBF5DD"/>
</svg>
